<?xml version="1.0" encoding="utf-8"?>
<svg version="1.0" id="Preference" xmlns="http://www.w3.org/2000/svg" xmlns:xlink="http://www.w3.org/1999/xlink" x="0px" y="0px"
	 width="188px" height="29px" viewBox="0 0 188 29" enable-background="new 0 0 188 29" xml:space="preserve">
<rect fill="none" width="188" height="29"/>
<path fill="#FF8D40" d="M185.17,24.843c0.113,0.937-0.34,1.848-1.211,2.163c-1.379,0.475-2.971,0.768-4.439,0.768
	c-4.586,0-6.792-2.994-6.792-7.243c0-5.241,3.668-10.974,9.384-10.974c3.252,0,5.329,2.002,5.329,4.903
	c0,3.929-3.442,5.49-8.612,5.735c-1.235,0.058-2.371,1.08-1.918,2.202c0.035,0.113,0.083,0.192,0.129,0.293
	c0.653,1.175,1.837,1.769,3.395,1.769c1.2,0,2.243-0.201,3.15-0.52C184.303,23.72,185.092,24.116,185.17,24.843z M183.694,14.46
	c0-1.106-0.848-1.801-2.105-1.801c-1.652,0-2.941,1.041-3.761,2.387c-0.571,0.95,0.279,2.063,1.388,2.001
	c2.785-0.188,4.477-0.9,4.477-2.572V14.46z M170.894,25.152c0.035,0.972-0.51,1.923-1.453,2.183
	c-0.891,0.256-1.99,0.439-3.246,0.439c-4.14,0-6.696-2.828-6.696-6.992c0-6.073,4.392-11.225,10.532-11.225
	c0.625,0,1.205,0.076,1.724,0.158c0.957,0.196,1.426,1.22,1.142,2.125c-0.275,0.892-1.233,1.278-2.151,1.156
	c-0.255-0.015-0.542-0.064-0.841-0.064c-3.854,0-6.255,3.731-6.255,7.356c0,2.608,1.431,4.087,3.635,4.087
	c0.759,0,1.438-0.125,2.025-0.264C170.06,23.911,170.856,24.373,170.894,25.152z M143.423,27.356c-1.027,0-1.803-0.908-1.607-1.932
	l1.779-10.065c0.262-1.347,0.452-2.567,0.612-3.668c0.13-1.012,0.988-1.742,1.986-1.742h0.171c0.851,0,1.501,0.726,1.418,1.568
	l-0.162,1.539c-0.007,0.003,0,0.047,0.015,0.047c0.04,0,0.063-0.044,0.08-0.061c1.513-2.319,3.622-3.485,5.906-3.485
	c2.35,0,4.218,1.5,4.218,4.785c0,0.777-0.134,1.999-0.312,2.899l-1.473,8.183c-0.206,1.128-1.191,1.932-2.328,1.932
	c-1.037,0-1.803-0.908-1.619-1.932l1.416-7.884c0.097-0.637,0.203-1.413,0.203-2.102c0-1.426-0.505-2.508-2.067-2.508
	c-1.804,0-4.128,2.308-4.845,6.377l-1.076,6.116C145.543,26.552,144.561,27.356,143.423,27.356z M138.991,24.843
	c0.112,0.937-0.353,1.848-1.22,2.163c-1.385,0.475-2.964,0.768-4.432,0.768c-4.597,0-6.804-2.994-6.804-7.243
	c0-5.241,3.673-10.974,9.379-10.974c3.265,0,5.345,2.002,5.345,4.903c0,3.929-3.444,5.49-8.627,5.735
	c-1.225,0.058-2.375,1.08-1.914,2.202c0.052,0.113,0.086,0.192,0.142,0.293c0.643,1.175,1.822,1.769,3.386,1.769
	c1.198,0,2.249-0.201,3.15-0.52C138.105,23.72,138.898,24.116,138.991,24.843z M137.512,14.46c0-1.106-0.851-1.801-2.1-1.801
	c-1.666,0-2.955,1.041-3.76,2.387c-0.579,0.95,0.27,2.063,1.373,2.001c2.795-0.188,4.487-0.9,4.487-2.572V14.46z M117.528,27.356
	c-1.028,0-1.809-0.908-1.624-1.932l1.603-8.785c0.297-1.721,0.485-3.53,0.644-4.996c0.108-0.967,0.936-1.693,1.927-1.693
	c0.909,0,1.64,0.776,1.55,1.679c-0.063,0.642-0.129,1.281-0.22,1.936c0,0.047,0.019,0.068,0.054,0.068
	c0.03,0,0.063-0.018,0.069-0.058c0.913-1.89,2.271-3.366,3.955-3.86c1.082-0.286,1.899,0.837,1.679,1.933
	c-0.221,1.153-1.353,1.796-2.448,2.221c-2.064,0.782-3.427,3.372-3.956,6.504l-0.908,5.051
	C119.649,26.552,118.666,27.356,117.528,27.356z M113.101,24.843c0.109,0.937-0.356,1.848-1.225,2.163
	c-1.38,0.475-2.963,0.768-4.44,0.768c-4.594,0-6.795-2.994-6.795-7.243c0-5.241,3.667-10.974,9.378-10.974
	c3.269,0,5.336,2.002,5.336,4.903c0,3.929-3.443,5.49-8.607,5.735c-1.246,0.058-2.376,1.08-1.924,2.202
	c0.036,0.113,0.079,0.192,0.126,0.293c0.644,1.175,1.838,1.769,3.399,1.769c1.202,0,2.244-0.201,3.153-0.52
	C112.211,23.72,113.006,24.116,113.101,24.843z M111.618,14.46c0-1.106-0.842-1.801-2.113-1.801c-1.66,0-2.941,1.041-3.747,2.387
	c-0.58,0.95,0.258,2.063,1.379,2.001c2.79-0.188,4.482-0.9,4.482-2.572V14.46z M102.539,1.602c-0.257-0.021-0.513-0.023-0.808-0.023
	c-1.536,0-3.122,0.472-4.348,1.614c-1.531,1.383-2.345,3.536-2.736,5.717c-0.098,0.589-0.644,1.038-1.257,1.038
	c-0.957,0-1.763,0.663-1.927,1.609c-0.159,0.84,0.491,1.611,1.34,1.611l0,0l0,0c0.556,0,0.982,0.505,0.884,1.045l-2.001,11.209
	c-0.19,1.024,0.584,1.932,1.609,1.932c1.143,0,2.129-0.803,2.323-1.932l1.905-10.572c0.163-0.972,1.024-1.682,2.017-1.682h0.076
	c0.942,0,1.758-0.691,1.927-1.611c0.154-0.837-0.49-1.609-1.348-1.609h-0.086c-0.891,0-1.624-0.821-1.394-1.677
	c0.476-1.804,1.449-3.192,3.027-3.214c0.92-0.05,1.86-0.481,2.052-1.36C104.017,2.736,103.505,1.712,102.539,1.602z M88.383,24.843
	c0.122,0.937-0.354,1.848-1.218,2.163c-1.382,0.475-2.96,0.768-4.434,0.768c-4.592,0-6.81-2.994-6.81-7.243
	c0-5.241,3.688-10.974,9.393-10.974c3.259,0,5.328,2.002,5.328,4.903c0,3.929-3.427,5.49-8.611,5.735
	c-1.227,0.058-2.382,1.08-1.908,2.202c0.035,0.113,0.074,0.192,0.118,0.293c0.649,1.175,1.837,1.769,3.399,1.769
	c1.2,0,2.242-0.201,3.153-0.52C87.505,23.72,88.306,24.116,88.383,24.843z M86.902,14.46c0-1.106-0.847-1.801-2.1-1.801
	c-1.665,0-2.949,1.041-3.762,2.387c-0.577,0.95,0.278,2.063,1.386,2.001c2.795-0.188,4.477-0.9,4.477-2.572V14.46z M66.919,27.356
	c-1.017,0-1.79-0.908-1.623-1.932l1.601-8.785c0.296-1.721,0.487-3.53,0.648-4.996c0.105-0.967,0.936-1.693,1.911-1.693
	c0.922,0,1.661,0.776,1.571,1.679c-0.061,0.642-0.133,1.281-0.222,1.936c0,0.047,0.019,0.068,0.052,0.068
	c0.032,0,0.057-0.018,0.071-0.058c0.914-1.89,2.271-3.366,3.956-3.86c1.078-0.286,1.878,0.837,1.678,1.933
	c-0.227,1.153-1.346,1.796-2.447,2.221c-2.083,0.782-3.416,3.372-3.956,6.504l-0.901,5.051
	C69.031,26.552,68.06,27.356,66.919,27.356z M52.038,5.889c0.247-1.357,1.286-2.49,2.656-2.633c1.014-0.117,2.161-0.187,3.294-0.187
	c2.098,0,4.38,0.465,5.84,1.735c1.366,1.085,2.106,2.638,2.106,4.777c0,2.873-1.29,5.152-2.915,6.546
	c-1.806,1.502-4.362,2.271-7.056,2.315c-1.259,0.003-2.445,0.781-2.653,2.022l-0.901,4.973c-0.186,1.125-1.161,1.919-2.286,1.919
	c-1.024,0-1.79-0.908-1.617-1.919L52.038,5.889z M54.718,12.594c-0.214,1.228,0.59,2.451,1.823,2.434
	c3.28-0.1,5.431-2.303,5.431-5.117c0-2.525-1.716-3.443-3.924-3.48c-1.351-0.003-2.394,1.106-2.639,2.434L54.718,12.594z
	 M34.038,1.263c-0.326-0.119-0.583,0.311-0.326,0.523c3.423,3.155,5.581,7.704,5.581,12.724c0,5.036-2.158,9.548-5.581,12.703
	c-0.257,0.245,0,0.644,0.326,0.53c5.496-1.89,9.463-7.103,9.463-13.232C43.501,8.351,39.534,3.141,34.038,1.263z M26.564,1.263
	c-0.325-0.119-0.577,0.311-0.325,0.523c3.42,3.155,5.578,7.704,5.578,12.724c0,5.036-2.158,9.548-5.578,12.703
	c-0.252,0.245,0,0.644,0.325,0.53c5.503-1.89,9.465-7.103,9.465-13.232C36.03,8.351,32.068,3.141,26.564,1.263z M14.555,0.5
	C6.834,0.5,0.559,6.789,0.559,14.51c0,7.732,6.275,13.99,13.997,13.99c7.733,0,14.006-6.258,14.006-13.99
	C28.561,6.789,22.289,0.5,14.555,0.5z M21.903,17.94c-2.097,1.555-3.869,2.062-7.639,2.062H13.24c-0.745,0-1.411,0.53-1.52,1.275
	c-0.192,1.095-0.402,2.262-0.58,3.372c-0.121,0.681-0.797,1.096-1.44,0.839c-1.086-0.449-2.088-1.037-2.994-1.764
	c-0.635-0.496-0.875-1.347-0.703-2.12l3.25-14.739c0.167-0.721,0.826-1.272,1.577-1.272h5.54c1.404,0,2.693,0.122,3.724,0.317
	c1.03,0.195,1.748,0.591,2.492,1.037c0.757,0.491,1.5,1.326,1.889,2.06c0.393,0.75,0.587,1.672,0.587,2.815
	C25.061,14.342,24.004,16.388,21.903,17.94z M18.295,10.484c-0.6-0.396-1.485-0.573-2.671-0.591h-0.613
	c-0.765,0-1.386,0.528-1.515,1.278l-0.673,3.8c-0.122,0.652,0.417,1.284,1.09,1.284c1.647,0.085,2.959-0.331,3.894-1.017
	c0.932-0.661,1.391-1.627,1.391-2.904C19.199,11.506,18.903,10.874,18.295,10.484z"/>
</svg>
